# Blender v2.93.1 OBJ File: 'DirectionalPad.blend'
# www.blender.org
mtllib DirectionalPad.mtl
o Plane
v 0.000000 0.250000 0.000000
v 0.000000 0.125000 0.000000
v 0.125000 0.000000 0.000000
v 0.250000 0.000000 0.000000
v 0.375000 0.125000 0.000000
v 0.375000 0.250000 0.000000
v 0.250000 0.375000 0.000000
v 0.125000 0.375000 0.000000
v 0.125000 0.125000 0.000000
v 0.125000 0.250000 0.000000
v 0.250000 0.125000 0.000000
v 0.250000 0.250000 0.000000
vt 0.125000 0.000000
vt 0.000100 0.000000
vt 0.000100 0.999800
vt 0.125000 0.999900
vt 0.750000 0.000000
vt 0.875000 0.000000
vt 0.875000 1.000000
vt 0.750000 1.000000
vt 0.500000 0.000000
vt 0.625000 0.000000
vt 0.625000 1.000000
vt 0.500000 1.000000
vt 0.250000 0.000000
vt 0.375000 0.000000
vt 0.375000 1.000000
vt 0.250000 1.000000
vn 0.0000 -0.0000 1.0000
usemtl Material.001
s off
f 10/1/1 12/2/1 7/3/1 8/4/1
f 2/5/1 9/6/1 10/7/1 1/8/1
f 3/9/1 4/10/1 11/11/1 9/12/1
f 11/13/1 5/14/1 6/15/1 12/16/1
