# Blender v2.93.1 OBJ File: 'RoomMakerParts.blend'
# www.blender.org
mtllib RoomMakerParts.mtl
g Ground
v 0.500000 0.150000 -0.500000
v 0.500000 0.000000 -0.500000
v 0.500000 0.150000 0.500000
v 0.500000 0.000000 0.500000
v -0.500000 0.150000 -0.500000
v -0.500000 0.000000 -0.500000
v -0.500000 0.150000 0.500000
v -0.500000 0.000000 0.500000
vt 0.625000 0.500000
vt 0.875000 0.500000
vt 0.875000 0.750000
vt 0.625000 0.750000
vt 0.375000 0.750000
vt 0.625000 1.000000
vt 0.375000 1.000000
vt 0.375000 0.000000
vt 0.625000 0.000000
vt 0.625000 0.250000
vt 0.375000 0.250000
vt 0.125000 0.500000
vt 0.375000 0.500000
vt 0.125000 0.750000
vn 0.0000 1.0000 0.0000
vn 0.0000 0.0000 1.0000
vn -1.0000 0.0000 0.0000
vn 0.0000 -1.0000 0.0000
vn 1.0000 0.0000 0.0000
vn 0.0000 0.0000 -1.0000
usemtl None
s off
f 1/1/1 5/2/1 7/3/1 3/4/1
f 4/5/2 3/4/2 7/6/2 8/7/2
f 8/8/3 7/9/3 5/10/3 6/11/3
f 6/12/4 2/13/4 4/5/4 8/14/4
f 2/13/5 1/1/5 3/4/5 4/5/5
f 6/11/6 5/10/6 1/1/6 2/13/6
g Wall
v -0.500000 0.000000 0.075000
v -0.500000 2.150000 0.075000
v -0.500000 0.000000 -0.075000
v -0.500000 2.150000 -0.075000
v 0.500000 0.000000 0.075000
v 0.500000 2.150000 0.075000
v 0.500000 0.000000 -0.075000
v 0.500000 2.150000 -0.075000
vt 0.375000 0.000000
vt 0.625000 0.000000
vt 0.625000 0.250000
vt 0.375000 0.250000
vt 0.625000 0.500000
vt 0.375000 0.500000
vt 0.625000 0.750000
vt 0.375000 0.750000
vt 0.625000 1.000000
vt 0.375000 1.000000
vt 0.125000 0.500000
vt 0.125000 0.750000
vt 0.875000 0.500000
vt 0.875000 0.750000
vn -1.0000 0.0000 0.0000
vn 0.0000 0.0000 -1.0000
vn 1.0000 0.0000 0.0000
vn 0.0000 0.0000 1.0000
vn 0.0000 -1.0000 0.0000
vn 0.0000 1.0000 0.0000
usemtl None
s off
f 9/15/7 10/16/7 12/17/7 11/18/7
f 11/18/8 12/17/8 16/19/8 15/20/8
f 15/20/9 16/19/9 14/21/9 13/22/9
f 13/22/10 14/21/10 10/23/10 9/24/10
f 11/25/11 15/20/11 13/22/11 9/26/11
f 16/19/12 12/27/12 10/28/12 14/21/12
g WallCorner
v -0.500000 0.000000 0.075000
v -0.500000 2.150000 0.075000
v -0.500000 0.000000 -0.075000
v -0.500000 2.150000 -0.075000
v 0.500000 0.000000 0.075000
v 0.500000 2.150000 0.075000
v 0.500000 0.000000 -0.075000
v 0.500000 2.150000 -0.075000
v -0.350000 0.000000 -0.775000
v -0.350000 2.150000 -0.775000
v -0.500000 0.000000 -0.775000
v -0.500000 2.150000 -0.775000
v -0.500000 0.000000 -0.075000
v -0.500000 2.150000 -0.075000
v -0.350000 0.000000 -0.075000
v -0.350000 2.150000 -0.075000
vt 0.375000 0.000000
vt 0.625000 0.000000
vt 0.625000 0.250000
vt 0.375000 0.250000
vt 0.625000 0.500000
vt 0.375000 0.500000
vt 0.625000 0.750000
vt 0.375000 0.750000
vt 0.625000 1.000000
vt 0.375000 1.000000
vt 0.125000 0.500000
vt 0.125000 0.750000
vt 0.875000 0.500000
vt 0.875000 0.750000
vt 0.375000 0.325000
vt 0.625000 0.325000
vt 0.625000 0.500000
vt 0.375000 0.500000
vt 0.625000 0.750000
vt 0.375000 0.750000
vt 0.200000 0.500000
vt 0.200000 0.750000
vt 0.800000 0.500000
vt 0.800000 0.750000
vt 0.625000 0.925000
vt 0.375000 0.925000
vn -1.0000 0.0000 0.0000
vn 0.0000 0.0000 -1.0000
vn 1.0000 0.0000 0.0000
vn 0.0000 0.0000 1.0000
vn 0.0000 -1.0000 0.0000
vn 0.0000 1.0000 0.0000
usemtl None
s off
f 17/29/13 18/30/13 20/31/13 19/32/13
f 19/32/14 20/31/14 24/33/14 23/34/14
f 23/34/15 24/33/15 22/35/15 21/36/15
f 21/36/16 22/35/16 18/37/16 17/38/16
f 19/39/17 23/34/17 21/36/17 17/40/17
f 24/33/18 20/41/18 18/42/18 22/35/18
f 29/43/13 30/44/13 28/45/13 27/46/13
f 27/46/14 28/45/14 26/47/14 25/48/14
f 29/49/17 27/46/17 25/48/17 31/50/17
f 28/45/18 30/51/18 32/52/18 26/47/18
f 25/48/15 26/47/15 32/53/15 31/54/15
g WindowLeft
v -0.500000 0.000000 0.075000
v -0.500000 2.150000 0.075000
v -0.500000 0.000000 -0.075000
v -0.500000 2.150000 -0.075000
v 0.500000 0.000000 0.075000
v 0.500000 2.150000 0.075000
v 0.500000 0.000000 -0.075000
v 0.500000 2.150000 -0.075000
v -0.500000 1.707092 0.075000
v -0.500000 0.706108 0.075000
v -0.500000 0.706108 -0.075000
v -0.500000 1.707092 -0.075000
v 0.500000 0.706108 -0.075000
v 0.500000 1.707092 -0.075000
v 0.500000 0.706108 0.075000
v 0.500000 1.707092 0.075000
v -0.124976 0.000000 -0.075000
v -0.124976 2.150000 -0.075000
v -0.124976 0.000000 0.075000
v -0.124976 2.150000 0.075000
v -0.124976 1.707092 0.075000
v -0.124976 0.706108 0.075000
v -0.124976 1.707092 -0.075000
v -0.124976 0.706108 -0.075000
vt 0.375000 0.906244
vt 0.441803 0.906244
vt 0.441803 1.000000
vt 0.375000 1.000000
vt 0.375000 0.500000
vt 0.441803 0.500000
vt 0.441803 0.750000
vt 0.375000 0.750000
vt 0.375000 0.000000
vt 0.441803 0.000000
vt 0.441803 0.250000
vt 0.375000 0.250000
vt 0.218756 0.500000
vt 0.218756 0.750000
vt 0.781244 0.500000
vt 0.875000 0.500000
vt 0.875000 0.750000
vt 0.781244 0.750000
vt 0.375000 0.343756
vt 0.441803 0.343756
vt 0.558197 0.500000
vt 0.625000 0.500000
vt 0.625000 0.750000
vt 0.558197 0.750000
vt 0.558197 0.343756
vt 0.625000 0.343756
vt 0.558197 0.000000
vt 0.625000 0.000000
vt 0.625000 0.250000
vt 0.558197 0.250000
vt 0.558197 0.906244
vt 0.558197 1.000000
vt 0.625000 0.906244
vt 0.625000 1.000000
vt 0.125000 0.500000
vt 0.125000 0.750000
vn 0.0000 0.0000 1.0000
vn 1.0000 0.0000 0.0000
vn -1.0000 0.0000 0.0000
vn 0.0000 -1.0000 0.0000
vn 0.0000 1.0000 0.0000
vn 0.0000 0.0000 -1.0000
usemtl None
s off
f 51/55/19 54/56/19 42/57/19 33/58/19
f 39/59/20 45/60/20 47/61/20 37/62/20
f 33/63/21 42/64/21 43/65/21 35/66/21
f 49/67/22 39/59/22 37/62/22 51/68/22
f 50/69/23 36/70/23 34/71/23 52/72/23
f 49/73/24 56/74/24 45/60/24 39/59/24
f 46/75/20 40/76/20 38/77/20 48/78/20
f 55/79/24 50/80/24 40/76/24 46/75/24
f 41/81/21 34/82/21 36/83/21 44/84/21
f 53/85/19 41/86/19 42/57/19 54/56/19
f 53/85/22 55/79/22 46/75/22 48/78/22
f 56/74/20 55/79/20 53/85/20 54/56/20
f 41/81/21 44/84/21 43/65/21 42/64/21
f 53/85/19 52/87/19 34/88/19 41/86/19
f 48/78/19 38/77/19 52/87/19 53/85/19
f 44/84/24 55/79/24 56/74/24 43/65/24
f 56/74/23 54/56/23 47/61/23 45/60/23
f 44/84/24 36/83/24 50/80/24 55/79/24
f 35/66/24 43/65/24 56/74/24 49/73/24
f 40/76/23 50/69/23 52/72/23 38/77/23
f 35/89/22 49/67/22 51/68/22 33/90/22
f 37/62/19 47/61/19 54/56/19 51/55/19
g WindowRight
v 0.500000 0.000000 -0.075000
v 0.500000 2.150000 -0.075000
v 0.500000 0.000000 0.075000
v 0.500000 2.150000 0.075000
v -0.500000 0.000000 -0.075000
v -0.500000 2.150000 -0.075000
v -0.500000 0.000000 0.075000
v -0.500000 2.150000 0.075000
v 0.500000 1.707092 -0.075000
v 0.500000 0.706108 -0.075000
v 0.500000 0.706108 0.075000
v 0.500000 1.707092 0.075000
v -0.500000 0.706108 0.075000
v -0.500000 1.707092 0.075000
v -0.500000 0.706108 -0.075000
v -0.500000 1.707092 -0.075000
v 0.124976 0.000000 0.075000
v 0.124976 2.150000 0.075000
v 0.124976 0.000000 -0.075000
v 0.124976 2.150000 -0.075000
v 0.124976 1.707092 -0.075000
v 0.124976 0.706108 -0.075000
v 0.124976 1.707092 0.075000
v 0.124976 0.706108 0.075000
vt 0.375000 0.906244
vt 0.441803 0.906244
vt 0.441803 1.000000
vt 0.375000 1.000000
vt 0.375000 0.500000
vt 0.441803 0.500000
vt 0.441803 0.750000
vt 0.375000 0.750000
vt 0.375000 0.000000
vt 0.441803 0.000000
vt 0.441803 0.250000
vt 0.375000 0.250000
vt 0.218756 0.500000
vt 0.218756 0.750000
vt 0.781244 0.500000
vt 0.875000 0.500000
vt 0.875000 0.750000
vt 0.781244 0.750000
vt 0.375000 0.343756
vt 0.441803 0.343756
vt 0.558197 0.500000
vt 0.625000 0.500000
vt 0.625000 0.750000
vt 0.558197 0.750000
vt 0.558197 0.343756
vt 0.625000 0.343756
vt 0.558197 0.000000
vt 0.625000 0.000000
vt 0.625000 0.250000
vt 0.558197 0.250000
vt 0.558197 0.906244
vt 0.558197 1.000000
vt 0.625000 0.906244
vt 0.625000 1.000000
vt 0.125000 0.500000
vt 0.125000 0.750000
vn -0.0000 0.0000 -1.0000
vn -1.0000 0.0000 0.0000
vn 1.0000 0.0000 -0.0000
vn 0.0000 -1.0000 0.0000
vn 0.0000 1.0000 -0.0000
vn 0.0000 0.0000 1.0000
usemtl None
s off
f 75/91/25 78/92/25 66/93/25 57/94/25
f 63/95/26 69/96/26 71/97/26 61/98/26
f 57/99/27 66/100/27 67/101/27 59/102/27
f 73/103/28 63/95/28 61/98/28 75/104/28
f 74/105/29 60/106/29 58/107/29 76/108/29
f 73/109/30 80/110/30 69/96/30 63/95/30
f 70/111/26 64/112/26 62/113/26 72/114/26
f 79/115/30 74/116/30 64/112/30 70/111/30
f 65/117/27 58/118/27 60/119/27 68/120/27
f 77/121/25 65/122/25 66/93/25 78/92/25
f 77/121/28 79/115/28 70/111/28 72/114/28
f 80/110/26 79/115/26 77/121/26 78/92/26
f 65/117/27 68/120/27 67/101/27 66/100/27
f 77/121/25 76/123/25 58/124/25 65/122/25
f 72/114/25 62/113/25 76/123/25 77/121/25
f 68/120/30 79/115/30 80/110/30 67/101/30
f 80/110/29 78/92/29 71/97/29 69/96/29
f 68/120/30 60/119/30 74/116/30 79/115/30
f 59/102/30 67/101/30 80/110/30 73/109/30
f 64/112/29 74/105/29 76/108/29 62/113/29
f 59/125/28 73/103/28 75/104/28 57/126/28
f 61/98/25 71/97/25 78/92/25 75/91/25
g WindowWay
v 0.500000 0.000000 -0.075000
v 0.500000 2.150000 -0.075000
v 0.500000 0.000000 0.075000
v 0.500000 2.150000 0.075000
v -0.500000 0.000000 -0.075000
v -0.500000 2.150000 -0.075000
v -0.500000 0.000000 0.075000
v -0.500000 2.150000 0.075000
v 0.500000 1.707092 -0.075000
v 0.500000 0.706108 -0.075000
v 0.500000 0.706108 0.075000
v 0.500000 1.707092 0.075000
v -0.500000 0.706108 0.075000
v -0.500000 1.707092 0.075000
v -0.500000 0.706108 -0.075000
v -0.500000 1.707092 -0.075000
vt 0.558197 0.750000
vt 0.625000 0.750000
vt 0.625000 1.000000
vt 0.558197 1.000000
vt 0.375000 0.500000
vt 0.441803 0.500000
vt 0.441803 0.750000
vt 0.375000 0.750000
vt 0.375000 0.000000
vt 0.441803 0.000000
vt 0.441803 0.250000
vt 0.375000 0.250000
vt 0.441803 1.000000
vt 0.375000 1.000000
vt 0.558197 0.500000
vt 0.558197 0.000000
vt 0.558197 0.250000
vt 0.125000 0.500000
vt 0.125000 0.750000
vt 0.625000 0.500000
vt 0.875000 0.500000
vt 0.875000 0.750000
vt 0.625000 0.000000
vt 0.625000 0.250000
vn -0.0000 0.0000 -1.0000
vn -1.0000 0.0000 0.0000
vn 1.0000 0.0000 -0.0000
vn 0.0000 -1.0000 -0.0000
vn 0.0000 1.0000 0.0000
vn 0.0000 0.0000 1.0000
usemtl None
s off
f 96/127/31 86/128/31 82/129/31 89/130/31
f 87/131/32 93/132/32 95/133/32 85/134/32
f 81/135/33 90/136/33 91/137/33 83/138/33
f 85/134/31 95/133/31 90/139/31 81/140/31
f 94/141/34 96/127/34 89/142/34 92/143/34
f 83/144/34 87/131/34 85/134/34 81/145/34
f 94/141/32 88/146/32 86/128/32 96/127/32
f 88/146/35 84/147/35 82/148/35 86/128/35
f 89/142/33 82/149/33 84/150/33 92/143/33
f 83/138/36 91/137/36 93/132/36 87/131/36
f 92/143/36 84/150/36 88/146/36 94/141/36
f 95/133/35 93/132/35 91/137/35 90/139/35
g Doorway
v -0.500000 0.000000 0.075000
v -0.500000 2.150000 0.075000
v -0.500000 0.000000 -0.075000
v -0.500000 2.150000 -0.075000
v 0.500000 0.000000 0.075000
v 0.500000 2.150000 0.075000
v 0.500000 0.000000 -0.075000
v 0.500000 2.150000 -0.075000
v 0.500000 2.099175 0.075000
v 0.500000 2.099175 -0.075000
v -0.500000 2.099175 -0.075000
v -0.500000 2.099175 0.075000
v -0.399487 0.000000 -0.075000
v 0.399487 0.000000 -0.075000
v 0.399487 2.150000 -0.075000
v -0.399487 2.150000 -0.075000
v 0.399487 0.000000 0.075000
v -0.399487 0.000000 0.075000
v -0.399487 2.150000 0.075000
v 0.399487 2.150000 0.075000
v -0.399487 2.099175 0.075000
v 0.399487 2.099175 0.075000
v 0.399487 2.099175 -0.075000
v -0.399487 2.099175 -0.075000
vt 0.619090 0.000000
vt 0.625000 0.000000
vt 0.625000 0.250000
vt 0.619090 0.250000
vt 0.625000 0.500000
vt 0.650128 0.500000
vt 0.650128 0.750000
vt 0.625000 0.750000
vt 0.619090 0.500000
vt 0.619090 0.750000
vt 0.375000 0.250000
vt 0.619090 0.275128
vt 0.375000 0.275128
vt 0.125000 0.500000
vt 0.150128 0.500000
vt 0.150128 0.750000
vt 0.125000 0.750000
vt 0.625000 0.775128
vt 0.619090 0.775128
vt 0.849872 0.500000
vt 0.875000 0.500000
vt 0.875000 0.750000
vt 0.849872 0.750000
vt 0.619090 0.474872
vt 0.625000 0.474872
vt 0.619090 0.974872
vt 0.625000 0.974872
vt 0.625000 1.000000
vt 0.619090 1.000000
vt 0.349872 0.500000
vt 0.375000 0.500000
vt 0.375000 0.750000
vt 0.349872 0.750000
vt 0.625000 0.275128
vt 0.375000 0.974872
vt 0.375000 1.000000
vt 0.375000 0.474872
vt 0.375000 0.775128
vt 0.375000 0.000000
vn -1.0000 0.0000 0.0000
vn 0.0000 1.0000 0.0000
vn 1.0000 0.0000 0.0000
vn 0.0000 0.0000 -1.0000
vn 0.0000 -1.0000 0.0000
vn 0.0000 0.0000 1.0000
usemtl None
s off
f 108/151/37 98/152/37 100/153/37 107/154/37
f 104/155/38 111/156/38 116/157/38 102/158/38
f 106/159/39 104/155/39 102/158/39 105/160/39
f 99/161/40 107/154/40 120/162/40 109/163/40
f 99/164/41 109/165/41 114/166/41 97/167/41
f 105/160/42 102/158/42 116/168/42 118/169/42
f 112/170/38 100/171/38 98/172/38 115/173/38
f 119/174/40 111/175/40 104/155/40 106/159/40
f 117/176/42 115/177/42 98/178/42 108/179/42
f 110/180/41 103/181/41 101/182/41 113/183/41
f 112/170/38 115/173/38 116/157/38 111/156/38
f 114/166/39 109/165/39 120/162/39 117/176/39
f 117/176/41 120/162/41 119/174/41 118/169/41
f 107/154/40 100/153/40 112/184/40 120/162/40
f 111/175/40 119/174/40 120/162/40 112/184/40
f 115/177/42 117/176/42 118/169/42 116/168/42
f 114/185/42 117/176/42 108/179/42 97/186/42
f 110/187/40 119/174/40 106/159/40 103/181/40
f 101/182/42 105/160/42 118/169/42 113/188/42
f 103/181/39 106/159/39 105/160/39 101/182/39
f 97/189/37 108/151/37 107/154/37 99/161/37
f 110/180/37 113/183/37 118/169/37 119/174/37
